# xmcd CD database file
#
# Track frame offsets:
#	150
#	20904
#	38904
#	56704
#	74299
#	90814
#	112324
#	131814
#	145029
#	165699
#	184639
#	198494
#	220638
#	240333
#	265518
#	284413
#	313408
#	331192
#
# Disc length: 4619 seconds
#
# Revision: 4
# Processed by: cddbd v1.5.2PL0 Copyright (c) Steve Scherf et al.
# Submitted via: CDex 1.70beta2
#
DISCID=0b120912
DTITLE=Various Artist - Kuschelrock 18
DYEAR=2004
DGENRE=Kuschelrock
TTITLE0=Seal - Love's Divine
TTITLE1=Dido - White Flag
TTITLE2=Three Doors Down - Here Without You
TTITLE3=Reamonn - Star
TTITLE4=Wet Wet Wet - Goodnight Girl
TTITLE5=Alannah Myles - Black Velvet
TTITLE6=Dave Stewart ft. Candy Dulfer - Lily Was Here
TTITLE7=Bruce Springsteen - If I Should Fall Behind
TTITLE8=George Michael - Kissing A Fool
TTITLE9=Katie Melua - The Closest Thing To Crazy
TTITLE10=Michael Andrews ft. Gary Jules - Mad World
TTITLE11=Sam Brown - Stop
TTITLE12=Bryan Ferry - Slave To Love
TTITLE13=Alicia Keys - You Don't Know My Name
TTITLE14=Sarah Connor ft. Natural - Just One Last Dance
TTITLE15=Leonard Cohen - A Thousand Kisses Deep
TTITLE16=C-Bra - Love You Tonight
TTITLE17=Papermoon - Night After Night
EXTD=YEAR: 2004
EXTT0=
EXTT1=
EXTT2=
EXTT3=
EXTT4=
EXTT5=
EXTT6=
EXTT7=
EXTT8=
EXTT9=
EXTT10=
EXTT11=
EXTT12=
EXTT13=
EXTT14=
EXTT15=
EXTT16=
EXTT17=
PLAYORDER=
